<svg width="1280" height="520" viewBox="0 0 1280 520" fill="none" xmlns="http://www.w3.org/2000/svg" role="img" aria-labelledby="title desc">
  <title id="title">MCM-ICM Agent workflow architecture</title>
  <desc id="desc">A readable architecture diagram showing user inputs, multi-agent workflow stages, quality gates, repair loops, and auditable workspace artifacts.</desc>
  <defs>
    <linearGradient id="background" x1="0" y1="0" x2="1280" y2="520" gradientUnits="userSpaceOnUse">
      <stop stop-color="#F8FAFC"/>
      <stop offset="1" stop-color="#E9EEF5"/>
    </linearGradient>
    <linearGradient id="header" x1="0" y1="0" x2="1280" y2="0" gradientUnits="userSpaceOnUse">
      <stop stop-color="#0B1220"/>
      <stop offset=".52" stop-color="#12343B"/>
      <stop offset="1" stop-color="#2A1F45"/>
    </linearGradient>
    <marker id="arrow" markerWidth="11" markerHeight="11" refX="8" refY="5.5" orient="auto">
      <path d="M1 1 L9 5.5 L1 10" fill="none" stroke="#475569" stroke-width="1.8" stroke-linecap="round" stroke-linejoin="round"/>
    </marker>
    <marker id="arrowAccent" markerWidth="11" markerHeight="11" refX="8" refY="5.5" orient="auto">
      <path d="M1 1 L9 5.5 L1 10" fill="none" stroke="#0E7490" stroke-width="1.8" stroke-linecap="round" stroke-linejoin="round"/>
    </marker>
    <marker id="arrowWarn" markerWidth="11" markerHeight="11" refX="8" refY="5.5" orient="auto">
      <path d="M1 1 L9 5.5 L1 10" fill="none" stroke="#B45309" stroke-width="1.8" stroke-linecap="round" stroke-linejoin="round"/>
    </marker>
    <filter id="cardShadow" x="-8%" y="-18%" width="116%" height="140%" color-interpolation-filters="sRGB">
      <feDropShadow dx="0" dy="12" stdDeviation="18" flood-color="#0F172A" flood-opacity=".13"/>
    </filter>
    <style>
      .sans{font-family: ui-sans-serif, system-ui, -apple-system, BlinkMacSystemFont, "Segoe UI", sans-serif}
      .mono{font-family: ui-monospace, SFMono-Regular, Menlo, Monaco, Consolas, "Liberation Mono", monospace}
      .title{fill:#F8FAFC;font-size:42px;font-weight:800;letter-spacing:.2px}
      .subtitle{fill:#CBD5E1;font-size:17px;font-weight:500}
      .section{fill:#334155;font-size:12px;font-weight:800;letter-spacing:1.7px}
      .label{fill:#0F172A;font-size:15px;font-weight:750}
      .small{fill:#475569;font-size:12px;font-weight:520}
      .tiny{fill:#64748B;font-size:11px;font-weight:650}
      .panel{fill:#FFFFFF;stroke:#CBD5E1;stroke-width:1.2}
      .node{fill:#F8FAFC;stroke:#94A3B8;stroke-width:1.2}
      .nodeBlue{fill:#ECFEFF;stroke:#0891B2;stroke-width:1.4}
      .nodeGreen{fill:#ECFDF5;stroke:#059669;stroke-width:1.4}
      .nodeAmber{fill:#FFFBEB;stroke:#D97706;stroke-width:1.4}
      .nodePurple{fill:#F5F3FF;stroke:#7C3AED;stroke-width:1.4}
      .line{stroke:#475569;stroke-width:1.6;fill:none;marker-end:url(#arrow)}
      .lineAccent{stroke:#0E7490;stroke-width:1.8;fill:none;marker-end:url(#arrowAccent)}
      .lineWarn{stroke:#B45309;stroke-width:1.6;fill:none;stroke-dasharray:5 5;marker-end:url(#arrowWarn)}
      .pulse{animation:pulse 2.8s ease-in-out infinite;transform-origin:center}
      .dash{stroke-dasharray:6 6;animation:dash 12s linear infinite}
      @keyframes pulse{0%,100%{opacity:.55}50%{opacity:1}}
      @keyframes dash{to{stroke-dashoffset:-120}}
    </style>
  </defs>

  <rect width="1280" height="520" rx="26" fill="url(#background)"/>
  <rect x="24" y="24" width="1232" height="110" rx="20" fill="url(#header)"/>
  <text class="sans title" x="56" y="78">MCM-ICM Agent</text>
  <text class="sans subtitle" x="58" y="106">Agent topology, repair loops, and artifact contracts for mathematical modeling papers.</text>
  <g transform="translate(900 52)">
    <rect x="0" y="0" width="286" height="54" rx="14" fill="#FFFFFF" fill-opacity=".08" stroke="#FFFFFF" stroke-opacity=".22"/>
    <text class="mono" x="18" y="23" fill="#A7F3D0" font-size="13" font-weight="700">workspace = source of truth</text>
    <text class="mono" x="18" y="41" fill="#CBD5E1" font-size="12">inspect -> repair -> resume</text>
  </g>

  <g filter="url(#cardShadow)">
    <rect class="panel" x="52" y="170" width="160" height="260" rx="18"/>
    <text class="sans section" x="76" y="200">USER INPUT</text>
    <rect class="nodeBlue" x="76" y="222" width="112" height="40" rx="10"/>
    <text class="sans label" x="96" y="247">Problem</text>
    <rect class="nodeBlue" x="76" y="274" width="112" height="40" rx="10"/>
    <text class="sans label" x="95" y="299">Data files</text>
    <rect class="nodeBlue" x="76" y="326" width="112" height="40" rx="10"/>
    <text class="sans label" x="93" y="351">User idea</text>
    <rect class="nodeBlue" x="76" y="378" width="112" height="34" rx="10"/>
    <text class="sans small" x="95" y="399">JSON config</text>
  </g>

  <g filter="url(#cardShadow)">
    <rect class="panel" x="260" y="160" width="540" height="284" rx="18"/>
    <text class="sans section" x="286" y="190">MULTI-AGENT WORKFLOW</text>

    <rect class="node" x="286" y="214" width="118" height="44" rx="10"/>
    <text class="sans label" x="313" y="240">Intake</text>
    <rect class="node" x="432" y="214" width="118" height="44" rx="10"/>
    <text class="sans label" x="454" y="240">Parse QA</text>
    <rect class="nodeGreen" x="578" y="214" width="164" height="44" rx="10"/>
    <text class="sans label" x="607" y="240">Understand</text>

    <rect class="nodeAmber" x="286" y="286" width="156" height="44" rx="10"/>
    <text class="sans label" x="310" y="312">Data Scout</text>
    <rect class="nodeAmber" x="470" y="286" width="156" height="44" rx="10"/>
    <text class="sans label" x="494" y="312">User Discuss</text>
    <rect class="nodePurple" x="654" y="286" width="88" height="44" rx="10"/>
    <text class="sans label" x="681" y="312">RAG</text>

    <rect class="nodeGreen" x="286" y="358" width="156" height="44" rx="10"/>
    <text class="sans label" x="315" y="384">Modeling</text>
    <rect class="nodeGreen" x="470" y="358" width="156" height="44" rx="10"/>
    <text class="sans label" x="508" y="384">Solver</text>
    <rect class="nodeGreen" x="654" y="358" width="88" height="44" rx="10"/>
    <text class="sans label" x="681" y="384">Valid</text>

    <path class="lineAccent dash" d="M404 236 H432"/>
    <path class="lineAccent dash" d="M550 236 H578"/>
    <path class="lineAccent dash" d="M660 258 V286"/>
    <path class="lineAccent dash" d="M442 308 H470"/>
    <path class="lineAccent dash" d="M626 308 H654"/>
    <path class="lineAccent dash" d="M698 330 V358"/>
    <path class="lineAccent dash" d="M442 380 H470"/>
    <path class="lineAccent dash" d="M626 380 H654"/>
    <path class="lineWarn" d="M470 330 C420 344 342 342 326 330"/>
    <text class="sans tiny" x="310" y="348">new data need loops back</text>
  </g>

  <g filter="url(#cardShadow)">
    <rect class="panel" x="848" y="160" width="380" height="284" rx="18"/>
    <text class="sans section" x="874" y="190">PAPER, QA, AND ARTIFACTS</text>

    <rect class="nodePurple" x="874" y="214" width="142" height="44" rx="10"/>
    <text class="sans label" x="904" y="240">Figures</text>
    <rect class="nodePurple" x="1044" y="214" width="142" height="44" rx="10"/>
    <text class="sans label" x="1076" y="240">Claims</text>
    <rect class="nodePurple" x="874" y="286" width="142" height="44" rx="10"/>
    <text class="sans label" x="913" y="312">Write</text>
    <rect class="nodeAmber" x="1044" y="286" width="142" height="44" rx="10"/>
    <text class="sans label" x="1071" y="312">Evidence</text>
    <rect class="nodeAmber" x="874" y="358" width="142" height="44" rx="10"/>
    <text class="sans label" x="906" y="384">Typeset</text>
    <rect class="nodeAmber" x="1044" y="358" width="142" height="44" rx="10"/>
    <text class="sans label" x="1073" y="384">Review</text>

    <path class="lineAccent dash" d="M742 380 C790 380 812 236 874 236"/>
    <path class="lineAccent dash" d="M1016 236 H1044"/>
    <path class="lineAccent dash" d="M1115 258 V286"/>
    <path class="lineAccent dash" d="M1044 308 H1016"/>
    <path class="lineAccent dash" d="M945 330 V358"/>
    <path class="lineAccent dash" d="M1016 380 H1044"/>
    <path class="lineWarn" d="M1044 402 C1002 440 742 456 566 402"/>
    <text class="sans tiny" x="828" y="464">gate failures route to responsible agents</text>
  </g>

  <g>
    <path class="lineAccent dash" d="M212 300 H260"/>
    <path class="lineAccent dash" d="M800 308 H848"/>
  </g>

  <g transform="translate(56 460)">
    <circle class="pulse" cx="0" cy="0" r="5" fill="#0891B2"/>
    <text class="mono small" x="14" y="4">CLI commands create, inspect, resume, and package workspaces.</text>
    <circle class="pulse" cx="418" cy="0" r="5" fill="#059669"/>
    <text class="mono small" x="432" y="4">Agents exchange typed files, not hidden chat state.</text>
    <circle class="pulse" cx="812" cy="0" r="5" fill="#D97706"/>
    <text class="mono small" x="826" y="4">QA gates produce repair routes.</text>
  </g>
</svg>
